<svg width="464" height="280" viewBox="0 0 464 280" fill="none" xmlns="http://www.w3.org/2000/svg">
<rect width="464" height="280" fill="#838C93"/>
<path fill-rule="evenodd" clip-rule="evenodd" d="M273.458 135.846H190.903C189.947 135.846 189.173 135.128 189.173 134.241C189.173 134.056 189.207 133.878 189.269 133.712L198.371 107.54C198.534 106.812 199.23 106.265 200.064 106.265H264.283C265.079 106.265 265.749 106.764 265.951 107.443L275.107 133.756C275.159 133.909 275.188 134.072 275.188 134.241C275.188 135.128 274.413 135.846 273.458 135.846ZM271.135 132.637L263.081 109.475H201.276L193.22 132.637H271.135Z" fill="white"/>
<path d="M253.1 92C254.056 92 254.83 92.7185 254.83 93.6047V106.265H251.371V92L253.1 92Z" fill="white"/>
<path d="M235.46 92V106.265H232.001V93.6047C232.001 92.7185 232.776 92 233.731 92L235.46 92Z" fill="white"/>
<path d="M251.371 95.2096L235.46 95.2096L235.46 92L251.371 92L251.371 95.2096Z" fill="white"/>
<path d="M180.726 184.79H283.276V188H180.726V184.79Z" fill="white"/>
<path d="M198.531 135.846L198.531 184.79H195.071L195.071 135.846H198.531Z" fill="white"/>
<path d="M268.929 135.848V184.792H265.47L265.47 135.848H268.929Z" fill="white"/>
<path d="M241.376 156.267C242.332 156.267 243.106 156.985 243.106 157.871V184.793L239.647 184.793V156.267H241.376Z" fill="white"/>
<path d="M283.299 173.329V184.79H279.839V173.329H283.299Z" fill="white"/>
<path d="M224.419 156.267V184.793L220.96 184.793V157.871C220.96 156.985 221.735 156.267 222.69 156.267H224.419Z" fill="white"/>
<path d="M184.185 173.329L184.185 184.79L180.726 184.79L180.726 173.329H184.185Z" fill="white"/>
<path d="M239.647 159.476H224.419L224.419 156.267H239.647L239.647 159.476Z" fill="white"/>
<path d="M195.071 173.329H177.73C176.774 173.329 176 172.611 176 171.724C176 170.838 176.774 170.12 177.73 170.12H195.071V173.329Z" fill="white"/>
<path d="M268.929 173.329H286.27C287.226 173.329 288 172.611 288 171.724C288 170.838 287.226 170.12 286.27 170.12H268.929V173.329Z" fill="white"/>
</svg>
